<?xml version="1.0" encoding="UTF-8" standalone="no"?>
<svg
  enable-background="new 0 0 240.9 240.9"
  id="Layer_1"
  version="1.1"
  viewBox="0 0 240.9 240.9"
  x="0px"
  xml:space="preserve"
  xmlns="http://www.w3.org/2000/svg"
  xmlns:cc="http://creativecommons.org/ns#"
  xmlns:dc="http://purl.org/dc/elements/1.1/"
  xmlns:rdf="http://www.w3.org/1999/02/22-rdf-syntax-ns#"
  y="0px"><metadata
     id="metadata300"><rdf:RDF><cc:Work
         rdf:about=""><dc:format>image/svg+xml</dc:format><dc:type
  rdf:resource="http://purl.org/dc/dcmitype/StillImage"/></cc:Work></rdf:RDF></metadata>
  <defs
    id="defs298"/>
  <g
    id="XMLID_92_"><path
       d="M120.4,1.6C54.8,1.6,1.6,54.8,1.6,120.4c0,65.6,53.2,118.8,118.8,118.8c65.6,0,118.8-53.2,118.8-118.8   C239.3,54.8,186.1,1.6,120.4,1.6z"
       fill="#E6E6E6"
       id="path2" />
    <path
      d="M120.4,240.9C54,240.9,0,186.8,0,120.4C0,54,54,0,120.4,0c66.4,0,120.4,54,120.4,120.4   C240.9,186.8,186.8,240.9,120.4,240.9z M120.4,3.2C55.8,3.2,3.2,55.8,3.2,120.4c0,64.6,52.6,117.2,117.2,117.2   c64.6,0,117.2-52.6,117.2-117.2C237.6,55.8,185.1,3.2,120.4,3.2z"
      id="path4"/></g>
  <g
    id="XMLID_65_"><circle
       cx="120.2"
       cy="119.5"
       fill="#015949"
       id="circle7"
       r="88.9" /></g>
  <g
    id="XMLID_93_"><path
       d="M120.4,210.6c-49.7,0-90.2-40.5-90.2-90.2c0-49.7,40.5-90.2,90.2-90.2c49.7,0,90.2,40.5,90.2,90.2   C210.6,170.2,170.2,210.6,120.4,210.6z M120.4,32.8c-48.3,0-87.7,39.3-87.7,87.7s39.3,87.7,87.7,87.7c48.3,0,87.7-39.3,87.7-87.7   S168.8,32.8,120.4,32.8z"
       id="path10" /></g>
  <g
    id="g57"><g
       id="g15"><path
         d="M40.9,44.6l1.9-1.8L54.5,46l0,0l-7-7.5l1.7-1.6l9.5,10.2l-1.9,1.8l-11.6-3.2l0,0l7,7.5l-1.7,1.6L40.9,44.6z"
         id="path13" /></g>
    <g
      id="g19"><path
         d="M53.2,33.8l8.2-5.8l1.2,1.7l-6.2,4.4l2.1,3l5.8-4l1.1,1.6l-5.8,4l2.3,3.4l6.3-4.4l1.2,1.7l-8.4,5.8L53.2,33.8z"
         id="path17" /></g>
    <g
      id="g23"><path
         d="M64.1,26.1l2.2-1.1l6.9,8.5l0,0l-2.1-10.8l2.3-1.1l7.1,8.4l0,0l-2.3-10.7l2.2-1.1l2.6,14.2l-2.2,1.1l-7.2-8.4l0,0L75.7,36    l-2.3,1.1L64.1,26.1z"
         id="path21" /></g>
    <g
      id="g27"><path
         d="M96.4,22.5l-7-7.1l2.8-0.6l5,5.3l2.2-6.9l2.7-0.6l-3.2,9.4l1.2,5.3l-2.4,0.5L96.4,22.5z"
         id="path25" /></g>
    <g
      id="g31"><path
         d="M110.5,11.2c1-0.1,2,0,2.8,0.4c0.9,0.3,1.6,0.8,2.2,1.4c0.6,0.6,1.1,1.4,1.5,2.2c0.4,0.9,0.6,1.8,0.7,2.8    c0.1,1,0,2-0.2,2.9c-0.2,0.9-0.6,1.7-1.1,2.4c-0.5,0.7-1.2,1.3-2,1.7c-0.8,0.5-1.7,0.7-2.8,0.8c-1,0.1-2,0-2.8-0.4    c-0.9-0.3-1.6-0.8-2.2-1.4c-0.6-0.6-1.1-1.4-1.5-2.2c-0.4-0.9-0.6-1.8-0.7-2.8c-0.1-1,0-1.9,0.2-2.8c0.2-0.9,0.6-1.7,1.1-2.4    c0.5-0.7,1.2-1.3,2-1.7S109.5,11.3,110.5,11.2z M110.7,13.2c-0.7,0.1-1.4,0.3-1.9,0.6c-0.5,0.3-0.9,0.8-1.2,1.3    c-0.3,0.5-0.5,1.1-0.6,1.8c-0.1,0.6-0.1,1.3-0.1,2c0.1,0.7,0.2,1.3,0.4,1.9c0.2,0.6,0.5,1.2,0.9,1.6c0.4,0.5,0.8,0.8,1.4,1.1    c0.6,0.3,1.2,0.4,2,0.3c0.7-0.1,1.4-0.3,1.9-0.6c0.5-0.3,0.9-0.8,1.2-1.3c0.3-0.5,0.5-1.1,0.6-1.8c0.1-0.6,0.1-1.3,0.1-2    c-0.1-0.7-0.2-1.3-0.4-1.9c-0.2-0.6-0.5-1.2-0.9-1.6c-0.4-0.5-0.8-0.8-1.4-1.1C112.1,13.2,111.4,13.1,110.7,13.2z"
         id="path29" /></g>
    <g
      id="g35"><path
         d="M121.3,11l6.7,0.4c1.5,0.1,2.7,0.5,3.4,1.2c0.7,0.7,1,1.7,1,2.8c0,0.7-0.2,1.2-0.4,1.6c-0.2,0.4-0.5,0.8-0.8,1    s-0.5,0.4-0.8,0.5c-0.3,0.1-0.5,0.2-0.6,0.2l0,0c0.2,0,0.4,0.1,0.7,0.2c0.2,0.1,0.4,0.3,0.6,0.5c0.2,0.2,0.3,0.6,0.5,0.9    c0.1,0.4,0.1,0.8,0.1,1.4c-0.1,0.8,0,1.6,0,2.2c0.1,0.7,0.2,1.2,0.5,1.5l-2.6-0.2c-0.2-0.3-0.2-0.7-0.3-1c0-0.4,0-0.7,0-1.1    c0-0.6,0-1.2,0-1.7c0-0.5-0.2-0.9-0.4-1.2s-0.5-0.6-0.8-0.7c-0.3-0.2-0.8-0.3-1.4-0.3l-3.6-0.2l-0.4,5.7l-2.4-0.2L121.3,11z     M123.3,17.6l4,0.3c0.8,0.1,1.4-0.1,1.8-0.4c0.4-0.3,0.7-0.9,0.7-1.6c0-0.4,0-0.8-0.1-1.1c-0.1-0.3-0.3-0.5-0.5-0.7    c-0.2-0.2-0.5-0.3-0.8-0.4c-0.3-0.1-0.6-0.1-0.9-0.1l-4-0.3L123.3,17.6z"
         id="path33" /></g>
    <g
      id="g39"><path
         d="M138.5,12.5l2.4,0.5l-1.3,6.2l7.4-4.9l2.9,0.6l-6.6,4.3l4.1,9.4l-3-0.6l-3.1-7.5l-2.4,1.5l-1,4.6l-2.4-0.5L138.5,12.5z"
         id="path37" /></g>
    <g
      id="g43"><path
         d="M167.1,26.3c0.1-0.4,0.1-0.8,0.1-1.2c0-0.4-0.1-0.7-0.3-1.1c-0.2-0.3-0.4-0.7-0.7-0.9c-0.3-0.3-0.7-0.5-1.1-0.7    c-0.7-0.3-1.3-0.4-1.9-0.4c-0.6,0.1-1.2,0.2-1.7,0.6c-0.5,0.3-1,0.7-1.4,1.3c-0.4,0.5-0.7,1.1-1,1.7c-0.3,0.6-0.5,1.2-0.6,1.9    c-0.1,0.6-0.1,1.3,0,1.9c0.1,0.6,0.3,1.1,0.7,1.6s0.9,0.9,1.6,1.2c0.5,0.2,1,0.3,1.4,0.3c0.5,0,0.9-0.1,1.3-0.3    c0.4-0.2,0.8-0.4,1.1-0.8c0.3-0.3,0.6-0.7,0.9-1.2l2.2,1c-0.4,0.7-0.9,1.4-1.4,1.9c-0.6,0.5-1.2,0.9-1.9,1.1    c-0.7,0.2-1.4,0.4-2.2,0.3c-0.8,0-1.5-0.2-2.3-0.6c-1-0.4-1.7-1-2.3-1.7c-0.6-0.7-1-1.5-1.3-2.3s-0.3-1.7-0.3-2.7    c0.1-0.9,0.3-1.9,0.7-2.8c0.4-0.9,0.9-1.7,1.6-2.4c0.6-0.7,1.4-1.2,2.2-1.6c0.8-0.4,1.6-0.6,2.6-0.6c0.9,0,1.8,0.2,2.8,0.6    c0.7,0.3,1.3,0.7,1.9,1.2s1,1,1.3,1.6c0.3,0.6,0.5,1.2,0.6,1.9c0.1,0.7,0,1.4-0.3,2.1L167.1,26.3z"
         id="path41" /></g>
    <g
      id="g47"><path
         d="M174.7,25.3l2.1,1.2l-7,12.1l-2.1-1.2L174.7,25.3z"
         id="path45" /></g>
    <g
      id="g51"><path
         d="M179.9,28.3l9.2,6.5l-1.2,1.7l-3.6-2.6l-6.9,9.7l-2-1.4l6.9-9.7l-3.6-2.6L179.9,28.3z"
         id="path49" /></g>
    <g
      id="g55"><path
         d="M188.9,45.9l1.9-9.8l2.1,1.9l-1.5,7.1l6.9-2.1l2,1.9l-9.6,2.7l-3.7,4l-1.8-1.7L188.9,45.9z"
         id="path53" /></g></g>
  <g
    id="g147"><g
       id="g61"><path
         d="M25.1,138.6l1.4,5.6c0.3,1,0.3,2,0.1,2.8c-0.2,0.8-0.5,1.6-1,2.2c-0.5,0.6-1.1,1.2-1.9,1.6c-0.8,0.4-1.6,0.8-2.5,1    c-0.9,0.2-1.8,0.3-2.7,0.3c-0.9,0-1.7-0.2-2.4-0.5c-0.7-0.3-1.4-0.8-1.9-1.5c-0.5-0.7-0.9-1.5-1.2-2.6l-1.4-5.6L25.1,138.6z     M14.1,143.9l0.6,2.3c0.2,0.9,0.5,1.6,0.9,2.2c0.4,0.5,0.9,0.9,1.4,1.1c0.5,0.2,1.1,0.3,1.7,0.3c0.6,0,1.3-0.1,2-0.3    s1.3-0.4,1.9-0.7c0.6-0.3,1-0.6,1.4-1.1c0.4-0.4,0.6-1,0.7-1.6c0.1-0.6,0-1.4-0.2-2.4l-0.6-2.3L14.1,143.9z"
         id="path59" /></g>
    <g
      id="g65"><path
         d="M28.7,151.9l3.2,8.1l-2,0.8l-2.4-6.2l-3.4,1.3l2.2,5.7l-1.9,0.7l-2.2-5.7l-3.8,1.5l2.5,6.3l-2,0.8l-3.2-8.3L28.7,151.9z"
         id="path63" /></g>
    <g
      id="g69"><path
         d="M32.7,161.7l2.8,5.2c0.4,0.8,0.7,1.6,0.7,2.2c0,0.7-0.1,1.2-0.3,1.7s-0.5,0.9-0.9,1.2c-0.4,0.3-0.8,0.6-1.2,0.8    c-0.4,0.2-0.8,0.4-1.3,0.5c-0.5,0.1-1,0.2-1.5,0.1c-0.5-0.1-1.1-0.3-1.6-0.7c-0.5-0.4-1-1-1.5-1.8l-1.7-3.1l-4.7,2.5l-1.1-2    L32.7,161.7z M28,166.8l1.6,3c0.1,0.2,0.3,0.4,0.5,0.6c0.2,0.2,0.4,0.4,0.7,0.5c0.3,0.1,0.6,0.2,0.9,0.2c0.3,0,0.7-0.1,1.1-0.3    c0.4-0.2,0.7-0.4,0.9-0.7c0.2-0.3,0.3-0.5,0.4-0.8c0.1-0.3,0-0.5,0-0.8c-0.1-0.3-0.2-0.5-0.3-0.8l-1.6-3L28,166.8z"
         id="path67" /></g>
    <g
      id="g73"><path
         d="M39.9,174.1l1.4,2l-8.6,12.1l-1.4-2l2.3-3.1l-3-4.4l-3.7,1.1l-1.4-2L39.9,174.1z M32.5,178.2l2.3,3.3l3.8-5l0,0    L32.5,178.2z"
         id="path71" /></g>
    <g
      id="g77"><path
         d="M44.9,181.1l4.1,4.6c0.9,1.1,1.4,2.1,1.4,3c0,1-0.5,1.9-1.4,2.6c-0.5,0.4-1,0.7-1.4,0.9c-0.4,0.2-0.8,0.2-1.2,0.2    c-0.4,0-0.7,0-0.9-0.1c-0.2-0.1-0.4-0.2-0.5-0.2l0,0c0.1,0.2,0.2,0.4,0.3,0.6c0.1,0.2,0.1,0.5,0,0.8s-0.2,0.6-0.3,0.9    c-0.2,0.3-0.5,0.7-0.9,1.1c-0.6,0.5-1.1,1.1-1.6,1.6c-0.4,0.5-0.7,1-0.7,1.4l-1.6-1.8c0.1-0.3,0.3-0.6,0.5-0.9    c0.3-0.3,0.5-0.5,0.8-0.7c0.5-0.4,0.9-0.8,1.2-1.2c0.3-0.4,0.5-0.7,0.6-1.1c0.1-0.3,0.1-0.7,0-1c-0.1-0.3-0.3-0.7-0.7-1.1    l-2.2-2.5l-4.3,3.8l-1.5-1.7L44.9,181.1z M41.6,187l2.5,2.7c0.5,0.5,1,0.8,1.5,0.8c0.5,0,1.1-0.2,1.6-0.7c0.3-0.3,0.6-0.6,0.7-0.9    c0.1-0.3,0.2-0.5,0.2-0.8c0-0.3-0.1-0.5-0.2-0.7c-0.1-0.2-0.3-0.5-0.5-0.7l-2.4-2.7L41.6,187z"
         id="path75" /></g>
    <g
      id="g81"><path
         d="M52.4,189.4l7.3,6.5l-1.4,1.6l-2.9-2.6l-7.9,8.9l-1.6-1.4l7.9-8.9L51,191L52.4,189.4z"
         id="path79" /></g>
    <g
      id="g85"><path
         d="M60.9,196.9l2.5,1.7l-3.3,11l0,0l8.9-7.2l2.5,1.7l-7.8,11.6l-1.7-1.2l6-8.9l0,0l-8.9,7l-1.5-1l3.2-10.9l0,0l-6,8.9    l-1.7-1.2L60.9,196.9z"
         id="path83" /></g>
    <g
      id="g89"><path
         d="M73.6,205.2l7.8,3.9l-0.9,1.9l-5.9-3l-1.6,3.3l5.5,2.7l-0.9,1.8l-5.5-2.7l-1.8,3.7l6,3l-0.9,1.9l-7.9-4L73.6,205.2z"
         id="path87" /></g>
    <g
      id="g93"><path
         d="M83,209.7l2.2,0.8l1.9,11.6l0,0l3.5-9.7l2,0.7l-4.7,13.1l-2.2-0.8l-1.9-11.6l0,0l-3.5,9.7l-2-0.7L83,209.7z"
         id="path91" /></g>
    <g
      id="g97"><path
         d="M93.6,213.5l9.6,2.2l-0.5,2.1l-3.8-0.9l-2.7,11.5l-2.1-0.5l2.7-11.5l-3.7-0.9L93.6,213.5z"
         id="path95" /></g>
    <g
      id="g101"><path
         d="M115.9,217.6c0.9,0,1.7,0.3,2.4,0.6c0.7,0.4,1.3,0.9,1.8,1.5c0.5,0.6,0.8,1.3,1.1,2.1c0.2,0.8,0.3,1.6,0.3,2.5    c0,0.9-0.2,1.7-0.5,2.5s-0.7,1.4-1.2,2c-0.5,0.6-1.2,1-1.9,1.3c-0.7,0.3-1.6,0.4-2.5,0.4c-0.9,0-1.7-0.2-2.4-0.6    c-0.7-0.4-1.3-0.9-1.8-1.5c-0.5-0.6-0.8-1.3-1.1-2.1c-0.2-0.8-0.3-1.6-0.3-2.5c0-0.9,0.2-1.7,0.5-2.4c0.3-0.8,0.7-1.4,1.2-2    c0.5-0.6,1.2-1,1.9-1.3C114.1,217.7,114.9,217.5,115.9,217.6z M115.8,219.3c-0.6,0-1.2,0.1-1.7,0.3c-0.5,0.2-0.9,0.6-1.2,1    c-0.3,0.4-0.6,0.9-0.7,1.5c-0.2,0.6-0.3,1.1-0.3,1.7c0,0.6,0,1.2,0.1,1.7c0.1,0.6,0.3,1.1,0.6,1.5c0.3,0.5,0.6,0.8,1.1,1.1    c0.5,0.3,1,0.4,1.7,0.5c0.6,0,1.2-0.1,1.7-0.3c0.5-0.2,0.9-0.6,1.2-1c0.3-0.4,0.6-0.9,0.7-1.5c0.2-0.6,0.3-1.1,0.3-1.7    c0-0.6,0-1.2-0.1-1.7c-0.1-0.6-0.3-1.1-0.6-1.5c-0.3-0.5-0.6-0.8-1.1-1.1C117,219.5,116.4,219.4,115.8,219.3z"
         id="path99" /></g>
    <g
      id="g105"><path
         d="M123.4,218l8.4-0.6l0.1,1.8l-6.3,0.4l0.2,3.2l5.5-0.4l0.1,1.7l-5.5,0.4l0.4,5.4l-2.1,0.1L123.4,218z"
         id="path103" /></g>
    <g
      id="g109"><path
         d="M144.3,223.8c0.1,0.5,0.3,0.9,0.6,1.3c0.3,0.3,0.6,0.6,1,0.7c0.4,0.2,0.8,0.2,1.2,0.2c0.4,0,0.9-0.1,1.4-0.2    c0.5-0.1,0.9-0.3,1.3-0.5c0.3-0.2,0.6-0.4,0.8-0.7c0.2-0.2,0.3-0.5,0.3-0.8c0-0.3,0-0.5,0-0.8c-0.1-0.5-0.4-0.9-0.7-1.1    c-0.3-0.2-0.6-0.3-0.9-0.3c-0.5-0.1-1.1-0.1-1.8-0.1c-0.7,0-1.5,0-2.5,0c-0.6,0-1.2-0.1-1.6-0.2c-0.4-0.1-0.8-0.3-1.1-0.6    c-0.3-0.2-0.6-0.5-0.7-0.8c-0.2-0.3-0.3-0.6-0.4-1c-0.2-0.7-0.2-1.3,0-1.9c0.2-0.6,0.4-1.1,0.8-1.5c0.4-0.5,0.8-0.8,1.4-1.1    c0.6-0.3,1.1-0.5,1.7-0.7c0.7-0.2,1.4-0.3,2.1-0.2c0.7,0,1.3,0.1,1.9,0.4c0.6,0.2,1.1,0.6,1.5,1.1c0.4,0.5,0.7,1,0.9,1.8l-2.4,0.6    c-0.3-0.9-0.7-1.4-1.4-1.6c-0.6-0.2-1.3-0.2-2.2,0c-0.3,0.1-0.6,0.2-0.8,0.3c-0.3,0.1-0.5,0.3-0.7,0.5c-0.2,0.2-0.4,0.4-0.5,0.7    c-0.1,0.3-0.1,0.6,0,0.9c0.1,0.5,0.4,0.8,0.7,1c0.4,0.2,0.8,0.3,1.3,0.3c0.1,0,0.3,0,0.6,0c0.4,0,0.8,0,1.2,0c0.5,0,0.9,0,1.3,0    c0.4,0,0.8,0,0.9,0c0.5,0,0.9,0.1,1.3,0.3c0.4,0.2,0.7,0.4,1,0.6c0.3,0.3,0.6,0.5,0.8,0.9c0.2,0.3,0.3,0.7,0.4,1    c0.2,0.8,0.2,1.4,0,2.1c-0.2,0.6-0.5,1.2-0.9,1.6c-0.4,0.5-0.9,0.9-1.5,1.2c-0.6,0.3-1.2,0.6-1.9,0.8c-0.8,0.2-1.5,0.3-2.3,0.3    c-0.7,0-1.4-0.1-2-0.4c-0.6-0.3-1.1-0.7-1.6-1.2c-0.5-0.5-0.8-1.2-1-2L144.3,223.8z"
         id="path107" /></g>
    <g
      id="g113"><path
         d="M156.5,210.2l2.4-1l10.3,10.8l-2.4,1l-2.6-2.9l-5.1,2.1l0.2,3.9l-2.3,1L156.5,210.2z M159,218.3l3.9-1.6l-4.2-4.7l-0.1,0    L159,218.3z"
         id="path111" /></g>
    <g
      id="g117"><path
         d="M165.3,206.3l2.1-1.3l10.5,5.7l0,0l-5.3-8.8l1.9-1.1l7.2,12l-2.1,1.3l-10.4-5.7l0,0l5.3,8.8l-1.9,1.1L165.3,206.3z"
         id="path115" /></g>
    <g
      id="g121"><path
         d="M177.4,198.6l2-1.5l8.4,11.2l-2,1.5L177.4,198.6z"
         id="path119" /></g>
    <g
      id="g125"><path
         d="M181.4,195.8l8.4-7.6l1.4,1.6l-3.3,3l8,8.8l-1.8,1.6l-8-8.8l-3.3,3L181.4,195.8z"
         id="path123" /></g>
    <g
      id="g129"><path
         d="M192.5,185l1.7-2l14.1,5.1l-1.7,2l-3.6-1.4l-3.7,4.2l1.9,3.4l-1.7,1.9L192.5,185z M198.3,191.1l2.8-3.2l-5.9-2.4l0,0    L198.3,191.1z"
         id="path127" /></g>
    <g
      id="g133"><path
         d="M197,179.8l6.4-9.3l1.7,1.2l-2.5,3.7l9.8,6.7l-1.4,2l-9.8-6.7l-2.5,3.6L197,179.8z"
         id="path131" /></g>
    <g
      id="g137"><path
         d="M204.6,168.3l1.2-2.1l12.2,6.8l-1.2,2.1L204.6,168.3z"
         id="path135" /></g>
    <g
      id="g141"><path
         d="M209.6,157.4c0.4-1,0.9-1.8,1.6-2.4c0.7-0.6,1.4-1.1,2.3-1.3s1.7-0.4,2.7-0.3c0.9,0.1,1.9,0.3,2.8,0.7    c0.9,0.4,1.7,0.9,2.4,1.5c0.7,0.6,1.2,1.3,1.6,2.1c0.4,0.8,0.6,1.6,0.6,2.5c0,0.9-0.1,1.8-0.5,2.8c-0.4,1-0.9,1.8-1.6,2.4    c-0.7,0.6-1.4,1.1-2.3,1.3c-0.8,0.3-1.7,0.4-2.7,0.3c-0.9-0.1-1.9-0.3-2.8-0.7c-0.9-0.4-1.7-0.9-2.4-1.5c-0.7-0.6-1.2-1.3-1.6-2.1    c-0.4-0.8-0.6-1.6-0.7-2.6C209,159.3,209.2,158.4,209.6,157.4z M211.4,158.2c-0.3,0.7-0.4,1.3-0.3,2c0.1,0.6,0.3,1.2,0.6,1.7    c0.3,0.5,0.8,1,1.3,1.4c0.5,0.4,1.1,0.7,1.7,1c0.6,0.3,1.2,0.4,1.9,0.5c0.7,0.1,1.3,0.1,1.9,0c0.6-0.1,1.1-0.4,1.6-0.8    c0.5-0.4,0.9-0.9,1.2-1.6c0.3-0.7,0.4-1.3,0.3-2c-0.1-0.6-0.3-1.2-0.6-1.7c-0.3-0.5-0.8-1-1.3-1.4c-0.5-0.4-1.1-0.7-1.7-1    c-0.6-0.3-1.2-0.4-1.9-0.5c-0.7-0.1-1.3-0.1-1.9,0c-0.6,0.1-1.1,0.4-1.6,0.8C212.1,156.9,211.7,157.5,211.4,158.2z"
         id="path139" /></g>
    <g
      id="g145"><path
         d="M213.2,148.9l0.6-2.4l11.4-3.4l0,0l-10-2.5l0.5-2.1l13.6,3.4l-0.6,2.4l-11.4,3.4l0,0.1l10,2.5l-0.5,2.1L213.2,148.9z"
         id="path143" /></g></g>
  <g
    id="g183"><g
       id="XMLID_22_"><path
         d="M113.9,103.2l-40,25.7c0,0,4.3,9.4,6.6,9.4c14.1,0.3,43.2-28.3,43.2-28.3L113.9,103.2z"
         fill="#FFFFFF"
         id="path149" /><path
    d="M80.6,139.3c-0.1,0-0.2,0-0.2,0c-2.6-0.1-6-7-7.4-10l-0.3-0.7l41.2-26.5L125,110l-0.8,0.8C123,111.9,95,139.3,80.6,139.3z     M75,129.3c2.1,4.4,4.5,8.1,5.4,8.2c0.1,0,0.1,0,0.2,0c12.4,0,36.9-22.8,41.5-27.3l-8.3-5.9L75,129.3z"
    id="path151"/></g>
    <g
      id="XMLID_21_"><path
         d="M104.5,96.6l-43.7,26.9c0,0,4.3,9.4,6.6,9.4c14.1,0.3,46.9-29.5,46.9-29.5L104.5,96.6z"
         fill="#FFFFFF"
         id="path154" />
      <path
        d="M67.6,133.8c-0.1,0-0.2,0-0.2,0c-2.6,0-6-7-7.4-10l-0.3-0.7l44.9-27.7l11.1,7.8l-0.8,0.8C113.5,105.3,82,133.8,67.6,133.8    z M62,123.9c2.1,4.4,4.5,8.1,5.4,8.2c0.1,0,0.1,0,0.2,0c12.5,0,40-24,45.2-28.5l-8.3-5.9L62,123.9z"
        id="path156"/></g>
    <g
      id="XMLID_20_"><path
         d="M94.2,89.2l-43.7,26.9c0,0,4.3,9.4,6.6,9.4c14.1,0.3,46.9-29.5,46.9-29.5L94.2,89.2z"
         fill="#FFFFFF"
         id="path159" />
      <path
        d="M57.2,126.5c-0.1,0-0.2,0-0.2,0c-2.6-0.1-6-7-7.4-10l-0.3-0.7l44.9-27.7l11.1,7.8l-0.8,0.8    C103.1,98,71.6,126.5,57.2,126.5z M51.6,116.5c2.1,4.4,4.5,8.1,5.4,8.2c0.1,0,0.1,0,0.2,0c12.5,0,40-24,45.2-28.5l-8.3-5.9    L51.6,116.5z"
        id="path161"/></g>
    <g
      id="XMLID_19_"><path
         d="M88.2,84.9l-55.8,25.4c0,0,3.5,7.8,6,8.1C53.9,120.5,98.1,91,98.1,91L88.2,84.9z"
         fill="#FFFFFF"
         id="path164" />
      <path
        d="M40.1,119.4c-0.6,0-1.3,0-1.8-0.1c-2.9-0.4-6.1-7.3-6.7-8.7l-0.4-0.8l57.1-25.9L99.8,91l-1.2,0.8    C96.9,93,57,119.4,40.1,119.4z M33.5,110.7c1.6,3.3,3.8,6.7,5,6.8c13.6,1.9,50.9-21.8,58-26.4l-8.4-5.2L33.5,110.7z"
        id="path166"/></g>
    <g
      id="XMLID_18_"><path
         d="M86.3,77.6c0,0-59.3,19.1-75,23.2c-3.6,0.9,4,13,6.5,13.5c10.6,2.2,73.5-31,71-29.4L86.3,77.6z"
         fill="#FFFFFF"
         id="path169" />
      <path
        d="M18.9,115.4c-0.5,0-0.9,0-1.3-0.1c-2.6-0.6-8.1-9.2-8.2-12.8c0-1.9,1.1-2.4,1.6-2.5c15.6-4,74.4-23,75-23.2l0.8-0.3    l2.6,7.8c0,0.1,0.1,0.1,0.1,0.2l0.4,0.7l-1.7,1.2l-0.1-0.2c-0.9,0.4-2.5,1.2-4.2,2.1C60.4,100.1,28.7,115.4,18.9,115.4z     M85.7,78.7c-7.3,2.4-59.7,19.2-74.2,23c-0.1,0-0.3,0.1-0.3,0.7c0.1,3.4,5.4,10.8,6.8,11.1c0.3,0.1,0.7,0.1,1.1,0.1    c10.3,0,50.6-20.1,64.1-26.9c2.2-1.1,3.6-1.8,4.5-2.2L85.7,78.7z"
        id="path171"/></g>
    <g
      id="XMLID_15_"><g
         id="g176"><path
           d="M119.1,107.6c-4.6-1.4-11.4-3.9-15.8-8.3c-3.3-3.2-6.9-8.1-7-8.1c-0.2-0.2-0.4-0.4-0.7-0.4c0,0,0,0,0,0     c0,0-0.4,0-1.1,0c-4.9,0-6.8-0.4-7.1-0.6c-0.4-0.6-0.6-4.5-0.4-7.8c0-0.3-0.1-0.5-0.3-0.7c-0.2-0.2-0.4-0.3-0.6-0.3     c0,0,0,0-0.1,0c-0.1,0-9.5,0.7-14.9,0.8c2.5-1.3,5.1-3,7.9-4.7c6.1-3.9,13.1-8.3,18.6-8.3c5.8,0,9.3,5.3,10.7,16.2     C109.8,97.6,115.1,104.2,119.1,107.6z"
           fill="#FFFFFF"
           id="path174" /></g>
      <g
        id="g180"><path
           d="M97.6,70.1c1.9,0,7.9,0,9.8,15.4c1.2,9.8,4.8,16.1,8.3,20c-4-1.5-8.6-3.7-11.8-6.9c-3.2-3.2-6.9-8-6.9-8     c-0.3-0.5-0.9-0.7-1.4-0.7c0,0,0,0,0,0c0,0-0.4,0-1,0c-3.7,0-5.6-0.2-6.3-0.4c-0.3-1.1-0.4-4.2-0.2-7.1c0-0.5-0.2-1-0.5-1.4     c-0.3-0.3-0.8-0.5-1.3-0.5c0,0-0.1,0-0.1,0c-0.1,0-6,0.4-11.1,0.7c1.5-0.9,3.1-1.9,4.7-2.9C85.6,74.5,92.5,70.1,97.6,70.1      M97.6,68.3c-9.2,0-21.5,11.4-29.8,14.4c-0.8,0.3,0.1,0.4,1.8,0.4c4.9,0,16.5-0.8,16.5-0.8s-0.4,7.6,0.7,8.5     c0.9,0.7,5.5,0.8,7.6,0.8c0.7,0,1.1,0,1.1,0s3.7,4.9,7.1,8.2c7.6,7.4,21.3,9.8,21.3,9.8s-12.3-5-14.8-24.4     C107.6,72.5,103.2,68.3,97.6,68.3L97.6,68.3z"
           id="path178" /></g></g></g>
  <g
    id="g219"><g
       id="XMLID_26_"><path
         d="M127.7,103.2l40,25.7c0,0-4.3,9.4-6.6,9.4c-14.1,0.3-43.2-28.3-43.2-28.3L127.7,103.2z"
         fill="#FFFFFF"
         id="path185" /><path
    d="M160.9,139.2c-14.4,0-42.4-27.4-43.6-28.6l-0.8-0.8l11.1-7.8l41.2,26.5l-0.3,0.7c-1.4,3-4.8,9.9-7.4,10    C161.1,139.2,161,139.2,160.9,139.2z M119.3,110.2c4.7,4.5,29.2,27.3,41.5,27.3c0.1,0,0.1,0,0.2,0c0.9-0.1,3.4-3.8,5.4-8.2    l-38.9-25L119.3,110.2z"
    id="path187"/></g>
    <g
      id="XMLID_25_"><path
         d="M137,96.5l43.7,26.9c0,0-4.3,9.4-6.6,9.4c-14.1,0.3-46.9-29.5-46.9-29.5L137,96.5z"
         fill="#FFFFFF"
         id="path190" />
      <path
        d="M173.9,133.8c-14.4,0-45.9-28.5-47.2-29.8l-0.8-0.8l11.1-7.8l44.9,27.7l-0.3,0.7c-1.4,3-4.8,9.9-7.4,10    C174.1,133.8,174,133.8,173.9,133.8z M128.7,103.5c5.2,4.6,32.7,28.5,45.2,28.5c0.1,0,0.1,0,0.2,0c0.9-0.1,3.4-3.8,5.4-8.2    L137,97.6L128.7,103.5z"
        id="path192"/></g>
    <g
      id="XMLID_24_"><path
         d="M147.3,89.2l43.7,26.9c0,0-4.3,9.4-6.6,9.4c-14.1,0.3-46.9-29.5-46.9-29.5L147.3,89.2z"
         fill="#FFFFFF"
         id="path195" />
      <path
        d="M184.3,126.4c-14.4,0-45.9-28.5-47.2-29.8l-0.8-0.8l11.1-7.8l44.9,27.7l-0.3,0.7c-1.4,3-4.8,9.9-7.4,10    C184.4,126.4,184.4,126.4,184.3,126.4z M139.1,96.1c5.2,4.6,32.7,28.5,45.2,28.5c0.1,0,0.1,0,0.2,0c0.9-0.1,3.4-3.8,5.4-8.2    l-42.5-26.2L139.1,96.1z"
        id="path197"/></g>
    <g
      id="XMLID_17_"><path
         d="M153.3,84.8l55.8,25.4c0,0-3.5,7.8-6,8.1c-15.5,2.1-59.8-27.3-59.8-27.3L153.3,84.8z"
         fill="#FFFFFF"
         id="path200" />
      <path
        d="M201.4,119.3c-16.9,0-56.8-26.4-58.6-27.6l-1.2-0.8l11.6-7.2l57.1,25.9l-0.4,0.8c-0.6,1.4-3.9,8.3-6.7,8.7    C202.7,119.3,202.1,119.3,201.4,119.3z M145,91c7.1,4.6,44.4,28.3,58,26.4c1.2-0.2,3.4-3.5,5-6.8l-54.6-24.8L145,91z"
        id="path202"/></g>
    <g
      id="XMLID_13_"><path
         d="M155.2,77.6c0,0,59.3,19.1,75,23.2c3.6,0.9-4,13-6.5,13.5c-10.6,2.2-73.5-31-71-29.4L155.2,77.6z"
         fill="#FFFFFF"
         id="path205" />
      <path
        d="M222.6,115.3c-9.8,0-41.6-15.3-65.1-27.1c-1.8-0.9-3.3-1.7-4.2-2.1l-0.1,0.2l-1.7-1.1l0.4-0.8c0.1-0.1,0.1-0.2,0.1-0.2    l2.6-7.8l0.8,0.3c0.6,0.2,59.4,19.2,75,23.2c0.5,0.1,1.7,0.6,1.6,2.5c-0.1,3.6-5.6,12.2-8.2,12.8    C223.6,115.3,223.1,115.3,222.6,115.3z M153.9,84.5c0.9,0.4,2.3,1.1,4.5,2.2c14.1,7.1,57.1,28.5,65.2,26.8    c1.3-0.3,6.7-7.7,6.8-11.1c0-0.6-0.2-0.7-0.3-0.7c-14.6-3.8-66.9-20.6-74.2-23L153.9,84.5z"
        id="path207"/></g>
    <g
      id="XMLID_4_"><g
         id="g212"><path
           d="M122.4,107.5c3.9-3.3,9.2-10,10.8-22.2c1.4-10.9,4.9-16.2,10.7-16.2c5.4,0,12.4,4.4,18.6,8.3     c2.8,1.8,5.4,3.4,7.9,4.7c-5.3-0.1-14.8-0.8-14.9-0.8c0,0,0,0-0.1,0c-0.2,0-0.5,0.1-0.6,0.3c-0.2,0.2-0.3,0.4-0.3,0.7     c0.2,3.3,0,7.2-0.4,7.8c-0.3,0.2-2.1,0.6-7,0.6c-0.6,0-1,0-1.1,0c0,0,0,0,0,0c-0.3,0-0.6,0.1-0.7,0.4c0,0-3.7,4.9-7,8.1     C133.8,103.6,127,106.2,122.4,107.5z"
           fill="#FFFFFF"
           id="path210" /></g>
      <g
        id="g216"><path
           d="M143.9,68.3v1.8c5.2,0,12,4.3,18.1,8.2c1.6,1,3.2,2,4.7,2.9c-5.1-0.2-11-0.7-11.1-0.7c0,0-0.1,0-0.1,0     c-0.5,0-0.9,0.2-1.3,0.5c-0.4,0.4-0.6,0.9-0.5,1.4c0.1,2.9,0,6-0.2,7.1c-0.7,0.2-2.6,0.4-6.3,0.4c-0.6,0-1,0-1,0c0,0,0,0,0,0     c-0.6,0-1.1,0.3-1.4,0.7c0,0-3.6,4.9-6.9,8c-3.3,3.2-7.9,5.4-11.8,6.9c3.5-3.9,7.1-10.3,8.3-20c1.9-15.4,7.8-15.4,9.8-15.4     L143.9,68.3 M143.9,68.3c-5.6,0-10,4.2-11.6,17c-2.4,19.4-14.8,24.4-14.8,24.4s13.7-2.4,21.3-9.8c3.4-3.3,7.1-8.2,7.1-8.2     s0.4,0,1.1,0c2.1,0,6.7-0.1,7.6-0.8c1.1-0.9,0.7-8.5,0.7-8.5s11.6,0.8,16.5,0.8c1.7,0,2.6-0.1,1.8-0.4     C165.4,79.7,153,68.3,143.9,68.3L143.9,68.3z"
           id="path214" /></g></g></g>
  <g
    id="XMLID_48_"><polygon
       id="polygon221"
       points="124.3,209.3 128.9,85.1 112.5,85.1 117.8,209.2  " />
    <path
      d="M124.9,209.9l-7.6-0.2l-5.4-125.3h17.7l0,0.6L124.9,209.9z M118.4,208.6l5.3,0.1l4.6-123h-15.2L118.4,208.6z"
      id="path223"/></g>
  <g
    id="XMLID_47_"><polygon
       fill="#FFFFFF"
       id="polygon226"
       points="115.1,86.3 116.6,153.3 117.5,153.9 117.5,86.3  " /></g>
  <g
    id="XMLID_6_"><path
       d="M132.6,58.8c-0.2-3.1-2.5-7-7.3-9.2c-1.8-0.9-3-1.8-2.9-3.5c0-2.1,1.4-3.6,1.4-3.6s-9.3,0.1-8.6,8.5   c0.1,1.7,1.5,4.4-0.9,4.6c-1.9,0.2-1.8-2.4-1.7-3.5c0.1-2.1-4.8,3.4-3.5,11.4C111,75.8,133.9,75.8,132.6,58.8z"
       id="path229" /></g>
  <g
    id="XMLID_3_"><path
       d="M130.9,61.3c0.2-3.4-0.7-6.2-3.1-8.2c-1.9-1.6-2.7-1.7-4.3-2.7c-1-0.6-2.1-1.5-2.5-3.1   c-0.3-1.5,0.1-2.6,0.1-2.6s-2.1,0.2-3.6,2.5c-0.9,1.4-1,2.6-0.3,6.5c0.8,4.5-4.7,4.9-5.5,2.2c-0.5-1.4-2.4,5.6-0.4,9.6   c1.9,3.6,5.9,5.2,10,5C125.5,70.2,130.6,67.1,130.9,61.3z"
       fill="#FFFFFF"
       id="path232" /></g>
  <g
    id="XMLID_1_"><path
       d="M116.2,66.3c0.4-2.7,2.9-2.8,4.2-4.5c0.7-1,0.6-2.8,0.6-2.8s2.4,1.4,1,4.6c-0.4,1-0.5,2.1,0.9,2c0.8,0,1.4-0.8,1.5-1.2   c0.1-0.6,1.3,1.4,0.8,3.8C124.4,72.2,115.2,72.5,116.2,66.3z"
       id="path235" /></g>
  <g
    id="g240"><ellipse
       cx="120.4"
       cy="77.8"
       id="ellipse238"
       rx="8.4"
       ry="7.2" /></g>
  <g
    id="g246"><g
       id="g244"><path
         d="M115.3,78c0-2.4,1.6-5,3.7-5.3c-0.2,0-0.4-0.1-0.6-0.1c-2.4,0-4.6,2.3-4.7,5.4c0,2.6,2.3,5.5,4.8,5.5    c0.2,0,0.4,0,0.6-0.1C116.9,83,115.3,80.4,115.3,78z"
         fill="#FFFFFF"
         id="path242" /></g></g>
  <g
    id="XMLID_40_"><path
       d="M126.9,155.8c18.1-2,26.3-11.8,25.6-22.5c-0.2-3-2.2-6.2-5.2-8.8c-5.3-4.2-10.7-4.2-12.1-4.2   c-7,0-12.7,2.8-12.7,6.3c0,3.5,5.7,6.3,12.7,6.3c2.4,0,4.7-0.3,6.6-0.9c1.7-0.2,2,1.8,1.8,2.6c-0.1,5.6-8.1,9.3-16.5,12.4   L126.9,155.8z"
       fill="#FFFFFF"
       id="path248" /></g>
  <g
    id="XMLID_12_"><path
       d="M120.6,160.3c-0.4,0-0.7-0.2-0.8-0.6c-0.2-0.5,0-1,0.5-1.2c0.1,0,0.3-0.1,0.4-0.2c0.3-0.2,0.5-0.3,0.8-0.4   c2.1-0.7,3.1-1,4.1-1.3c1.2-0.3,2.5-0.7,5.9-1.9c15.3-5.4,21.2-11.5,20.3-21.3c-0.3-3.7-2-5.7-4.9-8.2c-3.3-2.6-7.1-3.9-11.4-3.9   c0,0,0,0,0,0c-7.1,0-11.8,2.8-11.8,5.4c0,1,0.7,1.9,1.2,2.4c2.1,2,6.1,3.2,10.5,3c2.5-0.1,3.9-0.2,6.4-0.9c0.1,0,0.2,0,0.4,0   c1.8,0.2,2.9,1.6,3,3.5c0.2,4.5-5.9,9-18.3,13.3c-0.5,0.2-1-0.1-1.1-0.6c-0.2-0.5,0.1-1,0.6-1.1c11.1-3.9,17.3-8.1,17.1-11.5   c-0.1-1.4-0.9-1.7-1.3-1.8c-2.5,0.7-4.1,0.8-6.6,0.9c-4.9,0.2-9.4-1.2-11.9-3.5c-1.2-1.1-1.8-2.4-1.8-3.7c0-4,6-7.2,13.6-7.2   c0,0,0,0,0,0c4.7,0,9,1.5,12.6,4.3c3.2,2.8,5.1,5.2,5.5,9.5c1,10.6-5.5,17.5-21.5,23.1c-3.5,1.2-4.8,1.6-6,1.9   c-1,0.3-1.9,0.5-4,1.3c-0.1,0-0.3,0.2-0.5,0.3c-0.2,0.1-0.5,0.3-0.7,0.4C120.8,160.3,120.7,160.3,120.6,160.3z"
       id="path251" /></g>
  <g
    id="XMLID_10_"><ellipse
       cx="130.6"
       cy="125.7"
       id="ellipse254"
       rx="2.1"
       ry="0.9"
       transform="matrix(0.9794 -0.2017 0.2017 0.9794 -22.6694 28.9199)" /></g>
  <g
    id="XMLID_35_"><path
       d="M144.5,168.5c0-8.2-5-12.8-20.2-18.2c-3.1-1.1-1.5-0.3-9-3.1c-8.4-3.2-17.2-6.8-17.3-12.5   c-0.2-0.9,0.2-2.8,1.8-2.6c1.9,0.6,4.2,0.9,6.6,0.9c7,0,12.7-2.8,12.7-6.3c0-3.5-5.7-6.3-12.7-6.3c-1.4,0-6.8,0-12.1,4.2   c-3,2.6-5,5.8-5.2,8.8c-0.7,10.7,8.3,18,22.4,22.9c5.9,2,9.8,3.1,15.4,5.5c4.5,2,6.5,2.7,7,6.9c0.7,4.1-2.2,7.1-7.9,9.6l-0.3,9.8   C138.2,185.3,144.5,178.8,144.5,168.5z"
       fill="#FFFFFF"
       id="path257" /></g>
  <g
    id="g262"><path
       d="M112,197.6c0.1-3.4,2.5-6.3,4.5-7.2l-0.4-9.6c-4.9-0.1-10.6,5.1-13.1,9.6c-1.6,2.9-1.8,12.8,2.6,16.5   c5,1,7.8,1,12,1.2c0.1-0.4-0.4-1.6-0.5-1.7C114.9,205.5,111.9,201.1,112,197.6z"
       fill="#FFFFFF"
       id="path260" /></g>
  <g
    id="XMLID_8_"><path
       d="M123.1,189.3c-0.5,0-0.9-0.4-0.9-0.8c0-0.5,0.3-0.9,0.8-1c12-1,21.6-9.7,20.9-19c-0.5-7.4-6.6-12.6-20.1-17.4   c-1.4-0.5-1.8-0.6-2.5-0.9c-0.8-0.3-2.2-0.8-6.5-2.3c-12.4-4.3-18.6-8.8-18.3-13.3c0.1-2,1.2-3.3,3-3.5c0.1,0,0.2,0,0.4,0   c2.5,0.7,3.9,0.8,6.4,0.9c4.4,0.2,8.5-1,10.5-3c0.6-0.5,1.2-1.4,1.2-2.4c0-2.6-4.7-5.4-11.8-5.4c0,0,0,0,0,0c-4.3,0-8.2,1.3-11.5,4   c-2.9,2.5-4.5,4.5-4.8,8.2c-0.9,9.7,5,15.9,20.3,21.3c3.4,1.2,6.2,2.1,8.7,2.8c2.1,0.7,4.2,1.3,6.3,2.1c4.2,1.5,9.7,4.1,9.8,10.1   c-0.1,2.3-1.2,4.3-3.1,5.9c-3.4,2.9-9.1,4-12.7,3.6c-0.5-0.1-0.9-0.5-0.8-1c0.1-0.5,0.5-0.9,1-0.8c2.8,0.3,8.1-0.5,11.3-3.2   c1.5-1.3,2.3-2.8,2.4-4.5c-0.1-3.7-2.8-6.3-8.6-8.4c-2.1-0.7-4.1-1.4-6.2-2c-2.5-0.8-5.3-1.7-8.7-2.9c-16-5.6-22.4-12.6-21.5-23.1   c0.4-4.3,2.3-6.7,5.5-9.4c3.7-2.9,7.9-4.4,12.6-4.4c0,0,0,0,0,0c7.7,0,13.6,3.2,13.6,7.2c0,1.3-0.6,2.6-1.8,3.7   c-2.4,2.3-7,3.7-11.9,3.5c-2.5-0.1-4.1-0.2-6.6-0.9c-0.4,0.1-1.2,0.4-1.3,1.8c-0.2,3.5,6.1,7.7,17.1,11.5c4.3,1.5,5.7,2,6.5,2.3   c0.7,0.2,1.1,0.4,2.5,0.9c14.3,5.1,20.7,10.8,21.3,19C146.5,178.8,136.4,188.2,123.1,189.3C123.2,189.3,123.2,189.3,123.1,189.3z"
       id="path264" /></g>
  <g
    id="XMLID_2_"><ellipse
       cx="111.1"
       cy="125.7"
       id="ellipse267"
       rx="0.9"
       ry="2.1"
       transform="matrix(0.2017 -0.9794 0.9794 0.2017 -34.4278 209.1484)" /></g>
  <g
    id="g272"><path
       d="M118.4,208.9c-3.1-1.1-6.5-4.8-6.7-10.3c-0.2-3.4,1.5-9.5,8.6-10.7l0.3,1.8c-7.3,1.1-7.2,8-7.1,8.8   c0.2,4.4,2.9,7.7,5.5,8.7L118.4,208.9z"
       id="path270" /></g>
  <g
    id="g276"><path
       d="M107.4,209.4c-0.1,0-0.2,0-0.4-0.1c-6.7-2.9-6.6-13.3-4.6-18.3c1.8-4.8,5.5-10.5,17.4-12.5c0.5-0.1,1,0.2,1,0.7   c0.1,0.5-0.2,1-0.7,1c-11,1.9-14.3,6.8-16,11.4c-1.7,4.3-1.8,13.6,3.7,16c0.5,0.2,0.7,0.7,0.5,1.2   C108.1,209.2,107.8,209.4,107.4,209.4z"
       id="path274" /></g>
  <g
    id="XMLID_32_"><path
       d="M115,158.2c0,0.7,0.1,2,0.1,2c0,0.7-0.1,1.3-0.4,1.5c-3.9,3-6.5,2.7-7,6.9c-0.7,4.1,2.7,6.9,8.4,9.4   l10.4,2.8l-1.4,9.2l-8.6-2c-12.4-2.7-19.4-9.1-19.4-19.5c0-5.9,2.9-9.3,9.9-13.1l3.8,1.4L115,158.2z"
       fill="#FFFFFF"
       id="path278" /></g>
  <g
    id="g283"><path
       d="M129.1,197.6c0-3.4-1.9-6.3-3.9-7.2l0.4-9.6c4.9-0.1,10.6,5.1,13.1,9.6c1.6,2.9,2.1,12.7-2.4,16.4   c-3.1,0.5-6.8,1.1-12.3,1.3c-0.1-0.4,0.3-1.3,0.4-1.4C129,205.2,129.1,200.8,129.1,197.6z"
       fill="#FFFFFF"
       id="path281" /></g>
  <g
    id="XMLID_14_"><path
       d="M135,209.4c-0.3,0-0.6-0.2-0.8-0.5c-0.2-0.4-0.1-1,0.4-1.2c4.8-2.6,5.2-11.4,3.4-16.1c-1.4-3.6-3.5-7.4-13.2-10.7   c-0.5-0.2-0.9-0.3-1.4-0.4c-0.5-0.1-1.1-0.3-2.1-0.6c-0.8-0.2-1.6-0.4-2.3-0.6c-0.9-0.2-1.6-0.4-2.1-0.5c-2.5-0.5-10-2.2-10.1-9.1   c0-4.7,2.9-8,8.7-9.8c0.5-0.1,1,0.1,1.1,0.6c0.1,0.5-0.1,1-0.6,1.1c-5,1.6-7.5,4.2-7.5,8c0.1,3.7,2.8,6,8.7,7.3   c0.5,0.1,1.3,0.3,2.2,0.5c0.7,0.2,1.5,0.4,2.4,0.6c1,0.3,1.6,0.4,2.1,0.6c0.6,0.1,0.9,0.2,1.5,0.4c10.4,3.5,12.8,7.9,14.3,11.7   c2.1,5.4,1.5,15.2-4.2,18.3C135.3,209.3,135.2,209.4,135,209.4z"
       id="path285" /></g>
  <g
    id="XMLID_11_"><path
       d="M123.7,208.7l-0.6-1.7c2.5-0.9,5-3.9,5.3-8.5c0.1-2.4-1.1-6.8-6.2-8.1c-0.1,0-1.8-0.5-4.2-1c-1.8-0.3-2.5-0.5-3.1-0.6   l-0.6-0.1c-11.9-2.5-19.2-10.5-18.5-20.3c0.4-5.4,3-9.9,7.5-12.8l0.1-0.1c0.8-0.5,1.4-0.9,3.8-1.8l0.6,1.7   c-2.2,0.8-2.8,1.2-3.4,1.7l-0.1,0.1c-5.3,3.4-6.4,8.6-6.6,11.4c-0.6,8.9,6,16.1,17,18.4l0.6,0.1c0.5,0.1,1.2,0.3,3,0.6   c2.5,0.5,4.3,1,4.3,1c5.4,1.4,7.6,6.1,7.5,9.9C129.9,204,126.7,207.6,123.7,208.7z"
       id="path288" /></g>
  <g
    id="g293"><polygon
       fill="#FFFFFF"
       id="polygon291"
       points="116.5,159.4 117.5,159.8 117.5,176.3 117,176.2  " /></g></svg>
